Hornby 04.ufo
<glyph name="exclam" format="1">
  <advance width="272"/>
  <unicode hex="0021"/>
  <outline>
    <contour>
      <point x="136" y="725" type="curve" smooth="yes"/>
      <point x="115" y="725"/>
      <point x="95" y="719"/>
      <point x="79" y="706" type="curve"/>
      <point x="88" y="508"/>
      <point x="95" y="385"/>
      <point x="122" y="175" type="curve"/>
      <point x="151" y="175" type="line"/>
      <point x="178" y="385"/>
      <point x="184" y="508"/>
      <point x="193" y="706" type="curve"/>
      <point x="177" y="719"/>
      <point x="157" y="725"/>
    </contour>
    <component base="period" xOffset="23"/>
  </outline>
</glyph>
<glyph name="dollar" format="1">
  <advance width="526.85"/>
  <unicode hex="0024"/>
  <outline>
    <contour>
      <point x="289" y="279" type="curve" smooth="yes"/>
      <point x="294" y="487"/>
      <point x="305" y="697"/>
      <point x="305" y="697" type="curve"/>
      <point x="297" y="700"/>
      <point x="290" y="701"/>
      <point x="283" y="700" type="curve" smooth="yes"/>
      <point x="257" y="698"/>
      <point x="250" y="679"/>
      <point x="247" y="659" type="curve" smooth="yes"/>
      <point x="244" y="634"/>
      <point x="248" y="487"/>
      <point x="244" y="283" type="curve" smooth="yes"/>
      <point x="239" y="74"/>
      <point x="228" y="-136"/>
      <point x="228" y="-136" type="curve"/>
      <point x="236" y="-139"/>
      <point x="243" y="-139"/>
      <point x="250" y="-139" type="curve" smooth="yes"/>
      <point x="277" y="-137"/>
      <point x="283" y="-118"/>
      <point x="286" y="-98" type="curve" smooth="yes"/>
      <point x="289" y="-73"/>
      <point x="285" y="74"/>
    </contour>
    <component base="S" xScale="0.81" yScale="0.81" xOffset="3" yOffset="-3"/>
  </outline>
</glyph>
<glyph name="comma" format="1">
  <advance width="255"/>
  <unicode hex="002C"/>
  <outline>
    <contour>
      <point x="74" y="-152" type="line"/>
      <point x="145" y="-120"/>
      <point x="205" y="-53"/>
      <point x="205" y="18" type="curve" smooth="yes"/>
      <point x="205" y="81"/>
      <point x="164" y="117"/>
      <point x="125" y="117" type="curve" smooth="yes"/>
      <point x="93" y="117"/>
      <point x="70" y="101"/>
      <point x="55" y="75" type="curve"/>
      <point x="61" y="56" type="line"/>
      <point x="160" y="-48" type="line"/>
      <point x="151" y="2" type="line"/>
      <point x="129" y="-50"/>
      <point x="90" y="-90"/>
      <point x="50" y="-121" type="curve"/>
    </contour>
  </outline>
</glyph>
<glyph name="hyphen" format="1">
  <advance width="366"/>
  <unicode hex="002D"/>
  <outline>
    <contour>
      <point x="45" y="341" type="line"/>
      <point x="45" y="275" type="line"/>
      <point x="321" y="275" type="line"/>
      <point x="321" y="341" type="line"/>
    </contour>
  </outline>
</glyph>
<glyph name="period" format="1">
  <advance width="244"/>
  <unicode hex="002E"/>
  <outline>
    <contour>
      <point x="122" y="-20" type="curve" smooth="yes"/>
      <point x="163" y="-20"/>
      <point x="194" y="7"/>
      <point x="194" y="54" type="curve" smooth="yes"/>
      <point x="194" y="105"/>
      <point x="163" y="132"/>
      <point x="122" y="132" type="curve" smooth="yes"/>
      <point x="81" y="132"/>
      <point x="50" y="105"/>
      <point x="50" y="54" type="curve" smooth="yes"/>
      <point x="50" y="7"/>
      <point x="81" y="-20"/>
    </contour>
  </outline>
</glyph>
<glyph name="one" format="1">
  <advance width="355"/>
  <unicode hex="0031"/>
  <outline>
    <contour>
      <point x="232" y="359" type="line"/>
      <point x="244" y="526" type="line"/>
      <point x="228" y="545" type="line"/>
      <point x="168" y="545"/>
      <point x="80" y="534"/>
      <point x="34" y="512" type="curve"/>
      <point x="34" y="492" type="line"/>
      <point x="58" y="470"/>
      <point x="104" y="453"/>
      <point x="143" y="443" type="curve"/>
      <point x="143" y="62" type="line"/>
      <point x="104" y="57"/>
      <point x="50" y="44"/>
      <point x="30" y="28" type="curve"/>
      <point x="35" y="0" type="line"/>
      <point x="335" y="0" type="line"/>
      <point x="340" y="28" type="line"/>
      <point x="321" y="43"/>
      <point x="270" y="57"/>
      <point x="232" y="62" type="curve"/>
    </contour>
  </outline>
</glyph>
<glyph name="two" format="1">
  <advance width="512"/>
  <unicode hex="0032"/>
  <outline>
    <contour>
      <point x="117" y="371" type="line"/>
      <point x="152" y="510" type="line"/>
      <point x="170" y="516"/>
      <point x="193" y="519"/>
      <point x="219" y="519" type="curve" smooth="yes"/>
      <point x="295.0" y="519.0"/>
      <point x="346.0" y="477.057377049"/>
      <point x="346" y="400" type="curve" smooth="yes"/>
      <point x="346" y="292"/>
      <point x="246.953220714" y="236.967177771"/>
      <point x="23" y="16" type="curve"/>
      <point x="39" y="0" type="line"/>
      <point x="411.0" y="0.0" type="line" smooth="yes"/>
      <point x="454" y="0"/>
      <point x="477.0" y="18.0"/>
      <point x="477.0" y="54.0" type="curve" smooth="yes"/>
      <point x="477.0" y="65.0"/>
      <point x="475.0" y="76.0"/>
      <point x="472.0" y="86.0" type="curve"/>
      <point x="342.113249299" y="85.0084980862"/>
      <point x="195.380310434" y="66.92463235"/>
      <point x="122" y="58" type="curve"/>
      <point x="93" y="23" type="line"/>
      <point x="300.969902439" y="193.157192904"/>
      <point x="454" y="273"/>
      <point x="454" y="400" type="curve" smooth="yes"/>
      <point x="454" y="498"/>
      <point x="359" y="560"/>
      <point x="236" y="560" type="curve" smooth="yes"/>
      <point x="100.0" y="560.0"/>
      <point x="38.0" y="500.0"/>
      <point x="38" y="446" type="curve" smooth="yes"/>
      <point x="38.0" y="408.744186047"/>
      <point x="59.994610904" y="375.002255901"/>
      <point x="103" y="357" type="curve"/>
    </contour>
  </outline>
</glyph>
<glyph name="five" format="1">
  <advance width="478"/>
  <unicode hex="0035"/>
  <outline>
    <contour>
      <point x="187" y="-124" type="curve" smooth="yes"/>
      <point x="160" y="-124"/>
      <point x="140" y="-121"/>
      <point x="124" y="-115" type="curve"/>
      <point x="84" y="35" type="line"/>
      <point x="70" y="49" type="line"/>
      <point x="26.0602029063" y="31.0246284617"/>
      <point x="5" y="-4"/>
      <point x="5" y="-43" type="curve" smooth="yes"/>
      <point x="5" y="-110"/>
      <point x="78" y="-166"/>
      <point x="202" y="-166" type="curve" smooth="yes"/>
      <point x="333" y="-166"/>
      <point x="448" y="-76"/>
      <point x="448" y="52" type="curve" smooth="yes"/>
      <point x="448.0" y="192.0"/>
      <point x="316.783829951" y="271.953302881"/>
      <point x="124" y="277" type="curve"/>
      <point x="136" y="257" type="line"/>
      <point x="166" y="511" type="line"/>
      <point x="141" y="478" type="line"/>
      <point x="242.261036158" y="468.886506746"/>
      <point x="348.910569106" y="459.0"/>
      <point x="380" y="459" type="curve" smooth="yes"/>
      <point x="419" y="459"/>
      <point x="441" y="479"/>
      <point x="441" y="512" type="curve" smooth="yes"/>
      <point x="441" y="523"/>
      <point x="439" y="535"/>
      <point x="436" y="544" type="curve"/>
      <point x="312.808733218" y="543.022291533"/>
      <point x="184.542584667" y="541.009865176"/>
      <point x="129" y="540" type="curve"/>
      <point x="105" y="516" type="line"/>
      <point x="69" y="226" type="line"/>
      <point x="245.957366218" y="220.944075251"/>
      <point x="340.0" y="155.0"/>
      <point x="340" y="43" type="curve" smooth="yes"/>
      <point x="340.0" y="-58.2121212121"/>
      <point x="279.0" y="-124.0"/>
    </contour>
  </outline>
</glyph>
<glyph name="question" format="1">
  <advance width="489"/>
  <unicode hex="003F"/>
  <outline>
    <contour>
      <point x="209" y="161" type="curve"/>
      <point x="238" y="161" type="line"/>
      <point x="236" y="185"/>
      <point x="234" y="202"/>
      <point x="234" y="221" type="curve" smooth="yes"/>
      <point x="234" y="350"/>
      <point x="459" y="382"/>
      <point x="459" y="548" type="curve" smooth="yes"/>
      <point x="459" y="661"/>
      <point x="358" y="735"/>
      <point x="229" y="735" type="curve" smooth="yes"/>
      <point x="118" y="735"/>
      <point x="40" y="686"/>
      <point x="40" y="605" type="curve" smooth="yes"/>
      <point x="40" y="551"/>
      <point x="66" y="510"/>
      <point x="121" y="492" type="curve"/>
      <point x="135" y="506" type="line"/>
      <point x="153" y="680" type="line"/>
      <point x="170" y="687"/>
      <point x="192" y="691"/>
      <point x="217" y="691" type="curve" smooth="yes"/>
      <point x="299" y="691"/>
      <point x="343" y="641"/>
      <point x="343" y="565" type="curve" smooth="yes"/>
      <point x="343" y="424"/>
      <point x="161" y="393"/>
      <point x="161" y="264" type="curve" smooth="yes"/>
      <point x="161" y="226"/>
      <point x="176" y="192"/>
    </contour>
    <component base="period" xOffset="108"/>
  </outline>
</glyph>
<glyph name="at" format="1">
  <advance width="845"/>
  <unicode hex="0040"/>
  <outline>
    <contour>
      <point x="35" y="221" type="curve" smooth="yes"/>
      <point x="35" y="2"/>
      <point x="171" y="-113"/>
      <point x="403" y="-113" type="curve" smooth="yes"/>
      <point x="516" y="-113"/>
      <point x="601" y="-80"/>
      <point x="662" y="-34" type="curve"/>
      <point x="639" y="-1" type="line"/>
      <point x="602" y="-27"/>
      <point x="531" y="-68"/>
      <point x="408" y="-68" type="curve" smooth="yes"/>
      <point x="231" y="-68"/>
      <point x="119" y="29"/>
      <point x="119" y="223" type="curve" smooth="yes"/>
      <point x="119" y="434"/>
      <point x="270" y="575"/>
      <point x="458" y="575" type="curve" smooth="yes"/>
      <point x="657" y="575"/>
      <point x="727" y="456"/>
      <point x="727" y="318" type="curve" smooth="yes"/>
      <point x="727" y="181"/>
      <point x="670" y="117"/>
      <point x="601" y="117" type="curve" smooth="yes"/>
      <point x="570" y="117"/>
      <point x="563" y="144"/>
      <point x="572" y="196" type="curve" smooth="yes"/>
      <point x="613" y="427" type="line"/>
      <point x="604" y="440" type="line"/>
      <point x="570" y="423"/>
      <point x="538" y="398"/>
      <point x="524" y="371" type="curve"/>
      <point x="524" y="374" type="line"/>
      <point x="505" y="278" type="line" smooth="yes"/>
      <point x="488" y="194"/>
      <point x="427" y="124"/>
      <point x="377" y="124" type="curve" smooth="yes"/>
      <point x="339" y="124"/>
      <point x="322" y="162"/>
      <point x="322" y="216" type="curve" smooth="yes"/>
      <point x="322" y="315"/>
      <point x="375" y="402"/>
      <point x="446" y="402" type="curve" smooth="yes"/>
      <point x="484" y="402"/>
      <point x="510" y="383"/>
      <point x="527" y="349" type="curve"/>
      <point x="548" y="374" type="line"/>
      <point x="535" y="416"/>
      <point x="506" y="443"/>
      <point x="453" y="443" type="curve" smooth="yes"/>
      <point x="333" y="443"/>
      <point x="234" y="318"/>
      <point x="234" y="194" type="curve" smooth="yes"/>
      <point x="234" y="115"/>
      <point x="280" y="70"/>
      <point x="350" y="70" type="curve" smooth="yes"/>
      <point x="439" y="70"/>
      <point x="487" y="162"/>
      <point x="521" y="229" type="curve"/>
      <point x="504" y="219" type="line"/>
      <point x="492" y="193"/>
      <point x="485" y="159"/>
      <point x="485" y="134" type="curve" smooth="yes"/>
      <point x="485" y="90"/>
      <point x="521" y="65"/>
      <point x="574" y="65" type="curve" smooth="yes"/>
      <point x="680" y="65"/>
      <point x="805" y="144"/>
      <point x="805" y="319" type="curve" smooth="yes"/>
      <point x="805" y="499"/>
      <point x="688" y="618"/>
      <point x="455" y="618" type="curve" smooth="yes"/>
      <point x="245" y="618"/>
      <point x="35" y="460"/>
    </contour>
  </outline>
</glyph>
<glyph name="E" format="1">
  <advance width="682"/>
  <unicode hex="0045"/>
  <outline>
    <contour>
      <point x="530" y="393" type="curve"/>
      <point x="424" y="392"/>
      <point x="334" y="388"/>
      <point x="222" y="383" type="curve"/>
      <point x="222" y="336" type="line"/>
      <point x="466" y="328" type="line" smooth="yes"/>
      <point x="514" y="326"/>
      <point x="535" y="342"/>
      <point x="535" y="371" type="curve" smooth="yes"/>
      <point x="535" y="378"/>
      <point x="533" y="387"/>
    </contour>
    <contour>
      <point x="216" y="49" type="line"/>
      <point x="246" y="20" type="line"/>
      <point x="246" y="697" type="line"/>
      <point x="216" y="669" type="line"/>
      <point x="532" y="652" type="line"/>
      <point x="497" y="684" type="line"/>
      <point x="512" y="596"/>
      <point x="531.227304352" y="541.685270897"/>
      <point x="557" y="506" type="curve"/>
      <point x="585" y="511" type="line"/>
      <point x="598" y="697" type="line"/>
      <point x="580" y="715" type="line"/>
      <point x="45" y="715" type="line"/>
      <point x="40" y="687" type="line"/>
      <point x="58" y="672"/>
      <point x="104" y="656"/>
      <point x="168" y="648" type="curve"/>
      <point x="138" y="683" type="line"/>
      <point x="138" y="32" type="line"/>
      <point x="168" y="66" type="line"/>
      <point x="104" y="58"/>
      <point x="58" y="42"/>
      <point x="40" y="28" type="curve"/>
      <point x="45" y="0" type="line"/>
      <point x="45" y="0"/>
      <point x="602" y="0"/>
      <point x="602" y="0" type="curve"/>
      <point x="620" y="18" type="line"/>
      <point x="627" y="225" type="line"/>
      <point x="599" y="230" type="line"/>
      <point x="564" y="184"/>
      <point x="537" y="124"/>
      <point x="516" y="33" type="curve"/>
      <point x="553" y="63" type="line"/>
    </contour>
  </outline>
</glyph>
<glyph name="K" format="1">
  <advance width="770"/>
  <unicode hex="004B"/>
  <outline>
    <contour>
      <point x="244" y="683" type="line"/>
      <point x="214" y="649" type="line"/>
      <point x="282" y="656"/>
      <point x="329" y="672"/>
      <point x="343" y="687" type="curve"/>
      <point x="338" y="715" type="line"/>
      <point x="45" y="715" type="line"/>
      <point x="40" y="687" type="line"/>
      <point x="58" y="672"/>
      <point x="105" y="656"/>
      <point x="169" y="648" type="curve"/>
      <point x="139" y="683" type="line"/>
      <point x="139" y="32" type="line"/>
      <point x="169" y="66" type="line"/>
      <point x="105" y="58"/>
      <point x="58" y="42"/>
      <point x="40" y="28" type="curve"/>
      <point x="45" y="0" type="line"/>
      <point x="338" y="0" type="line"/>
      <point x="343" y="28" type="line"/>
      <point x="329" y="42"/>
      <point x="282" y="58"/>
      <point x="214" y="65" type="curve"/>
      <point x="244" y="32" type="line"/>
    </contour>
    <contour>
      <point x="613" y="73" type="curve"/>
      <point x="662" y="46" type="line"/>
      <point x="368" y="398" type="line"/>
      <point x="350" y="340" type="line"/>
      <point x="665" y="673" type="line"/>
      <point x="618" y="645" type="line"/>
      <point x="678" y="655"/>
      <point x="721" y="670"/>
      <point x="737" y="687" type="curve"/>
      <point x="732" y="715" type="line"/>
      <point x="452" y="715" type="line"/>
      <point x="447" y="687" type="line"/>
      <point x="461" y="672"/>
      <point x="508" y="655"/>
      <point x="576" y="648" type="curve"/>
      <point x="566" y="675" type="line"/>
      <point x="287" y="355" type="line"/>
      <point x="287" y="353" type="line"/>
      <point x="554" y="0" type="line"/>
      <point x="745" y="0" type="line"/>
      <point x="750" y="28" type="line"/>
      <point x="736.0" y="44.0"/>
      <point x="694" y="63"/>
    </contour>
  </outline>
</glyph>
<glyph name="P" format="1">
  <advance width="650"/>
  <unicode hex="0050"/>
  <outline>
    <contour>
      <point x="367" y="0" type="line"/>
      <point x="372" y="28" type="line"/>
      <point x="343" y="47"/>
      <point x="290" y="59"/>
      <point x="214" y="64" type="curve"/>
      <point x="244" y="32" type="line"/>
      <point x="244" y="685" type="line"/>
      <point x="216" y="644" type="line"/>
      <point x="268" y="664"/>
      <point x="302" y="671"/>
      <point x="340" y="671" type="curve" smooth="yes"/>
      <point x="436" y="671"/>
      <point x="495" y="606"/>
      <point x="495" y="515" type="curve" smooth="yes"/>
      <point x="495" y="428"/>
      <point x="446" y="347"/>
      <point x="333" y="347" type="curve" smooth="yes"/>
      <point x="286" y="347"/>
      <point x="253" y="351"/>
      <point x="219" y="365" type="curve"/>
      <point x="209" y="295" type="line"/>
      <point x="324" y="295" type="line" smooth="yes"/>
      <point x="503.0" y="295"/>
      <point x="617.0" y="390.0"/>
      <point x="617" y="520" type="curve" smooth="yes"/>
      <point x="617.0" y="655.0"/>
      <point x="505.0" y="720.0"/>
      <point x="338" y="720" type="curve" smooth="yes"/>
      <point x="267" y="720"/>
      <point x="230" y="715"/>
      <point x="143" y="715" type="curve" smooth="yes"/>
      <point x="45" y="715" type="line"/>
      <point x="40" y="687" type="line"/>
      <point x="58" y="672"/>
      <point x="104" y="656"/>
      <point x="168" y="648" type="curve"/>
      <point x="138" y="683" type="line"/>
      <point x="138" y="32" type="line"/>
      <point x="168" y="66" type="line"/>
      <point x="104" y="58"/>
      <point x="58" y="42"/>
      <point x="40" y="28" type="curve"/>
      <point x="45" y="0" type="line"/>
    </contour>
  </outline>
</glyph>
<glyph name="R" format="1">
  <advance width="727"/>
  <unicode hex="0052"/>
  <outline>
    <contour>
      <point x="45" y="0" type="line"/>
      <point x="336" y="0" type="line"/>
      <point x="341" y="28" type="line"/>
      <point x="323" y="42"/>
      <point x="277" y="58"/>
      <point x="213" y="66" type="curve"/>
      <point x="243" y="32" type="line"/>
      <point x="243" y="685" type="line"/>
      <point x="215" y="644" type="line"/>
      <point x="267" y="664"/>
      <point x="299" y="671"/>
      <point x="336" y="671" type="curve" smooth="yes"/>
      <point x="428.617449664" y="671.0"/>
      <point x="486.0" y="611.0"/>
      <point x="486" y="525" type="curve" smooth="yes"/>
      <point x="486" y="439"/>
      <point x="434" y="365"/>
      <point x="324" y="365" type="curve" smooth="yes"/>
      <point x="278" y="365"/>
      <point x="245" y="369"/>
      <point x="212" y="383" type="curve"/>
      <point x="207" y="313" type="line"/>
      <point x="297" y="313" type="line" smooth="yes"/>
      <point x="451" y="313"/>
      <point x="502" y="224"/>
      <point x="515" y="0" type="curve"/>
      <point x="712" y="0" type="line"/>
      <point x="717" y="28" type="line"/>
      <point x="703" y="44"/>
      <point x="661" y="62"/>
      <point x="596" y="69" type="curve"/>
      <point x="629" y="36" type="line"/>
      <point x="612" y="218"/>
      <point x="570" y="331"/>
      <point x="381" y="352" type="curve"/>
      <point x="296" y="332" type="line"/>
      <point x="478.0" y="332.0"/>
      <point x="608" y="412"/>
      <point x="608" y="534" type="curve" smooth="yes"/>
      <point x="608" y="664"/>
      <point x="490.0" y="720.0"/>
      <point x="334" y="720" type="curve" smooth="yes"/>
      <point x="264" y="720"/>
      <point x="227" y="715"/>
      <point x="141" y="715" type="curve" smooth="yes"/>
      <point x="45" y="715" type="line"/>
      <point x="40" y="687" type="line"/>
      <point x="58" y="672"/>
      <point x="104" y="656"/>
      <point x="168" y="648" type="curve"/>
      <point x="138" y="683" type="line"/>
      <point x="138" y="32" type="line"/>
      <point x="168" y="66" type="line"/>
      <point x="104" y="58"/>
      <point x="58" y="42"/>
      <point x="40" y="28" type="curve"/>
    </contour>
  </outline>
</glyph>
<glyph name="S" format="1">
  <advance width="627"/>
  <unicode hex="0053"/>
  <outline>
    <contour>
      <point x="60" y="65" type="line"/>
      <point x="118" y="12"/>
      <point x="226" y="-20"/>
      <point x="328" y="-20" type="curve" smooth="yes"/>
      <point x="470" y="-20"/>
      <point x="587" y="69"/>
      <point x="587" y="192" type="curve" smooth="yes"/>
      <point x="587" y="327"/>
      <point x="469" y="369"/>
      <point x="348" y="412" type="curve" smooth="yes"/>
      <point x="239" y="451"/>
      <point x="174" y="469"/>
      <point x="174" y="564" type="curve" smooth="yes"/>
      <point x="174" y="631"/>
      <point x="234" y="679"/>
      <point x="323" y="679" type="curve" smooth="yes"/>
      <point x="399" y="679"/>
      <point x="447" y="650"/>
      <point x="491" y="617" type="curve"/>
      <point x="454" y="661" type="line"/>
      <point x="455.000009539" y="567.999112854"/>
      <point x="489.439913673" y="503.207808769"/>
      <point x="522" y="478" type="curve"/>
      <point x="550" y="483" type="line"/>
      <point x="550" y="672" type="line"/>
      <point x="505" y="708"/>
      <point x="427" y="735"/>
      <point x="331" y="735" type="curve" smooth="yes"/>
      <point x="176" y="735"/>
      <point x="78" y="653"/>
      <point x="78" y="531" type="curve" smooth="yes"/>
      <point x="78" y="398"/>
      <point x="190" y="353"/>
      <point x="288" y="318" type="curve" smooth="yes"/>
      <point x="409" y="274"/>
      <point x="485" y="257"/>
      <point x="485" y="169" type="curve" smooth="yes"/>
      <point x="485" y="83"/>
      <point x="418" y="40"/>
      <point x="329" y="40" type="curve" smooth="yes"/>
      <point x="256" y="40"/>
      <point x="183" y="61"/>
      <point x="134" y="118" type="curve"/>
      <point x="163" y="69" type="line"/>
      <point x="158" y="191"/>
      <point x="123" y="256"/>
      <point x="88" y="280" type="curve"/>
      <point x="60" y="275" type="line"/>
    </contour>
  </outline>
</glyph>
<glyph name="V" format="1">
  <advance width="764"/>
  <unicode hex="0056"/>
  <outline>
    <contour>
      <point x="115" y="646" type="curve"/>
      <point x="69" y="679" type="line"/>
      <point x="348" y="-12" type="line"/>
      <point x="381" y="-23" type="line"/>
      <point x="381" y="-23"/>
      <point x="426" y="3"/>
      <point x="426" y="3" type="curve"/>
      <point x="694" y="677" type="line"/>
      <point x="649" y="645" type="line"/>
      <point x="708" y="653"/>
      <point x="743" y="671"/>
      <point x="759" y="687" type="curve"/>
      <point x="754" y="715" type="line"/>
      <point x="500" y="715" type="line"/>
      <point x="495" y="687" type="line"/>
      <point x="510" y="671"/>
      <point x="559" y="652"/>
      <point x="629" y="646" type="curve"/>
      <point x="605" y="677" type="line"/>
      <point x="376" y="20" type="line"/>
      <point x="413" y="58" type="line"/>
      <point x="193" y="679" type="line"/>
      <point x="172" y="647" type="line"/>
      <point x="242" y="654"/>
      <point x="291" y="671"/>
      <point x="306" y="687" type="curve"/>
      <point x="301" y="715" type="line"/>
      <point x="10" y="715" type="line"/>
      <point x="5" y="687" type="line"/>
      <point x="21" y="671"/>
      <point x="56" y="654"/>
    </contour>
  </outline>
</glyph>
<glyph name="W" format="1">
  <advance width="1034"/>
  <unicode hex="0057"/>
  <outline>
    <contour>
      <point x="784" y="3" type="curve"/>
      <point x="967" y="678" type="line"/>
      <point x="929" y="644" type="line"/>
      <point x="988" y="652"/>
      <point x="1023" y="671"/>
      <point x="1039" y="687" type="curve"/>
      <point x="1034" y="715" type="line"/>
      <point x="770" y="715" type="line"/>
      <point x="765" y="687" type="line"/>
      <point x="780" y="671"/>
      <point x="829" y="652"/>
      <point x="899" y="645" type="curve"/>
      <point x="875" y="678" type="line"/>
      <point x="735" y="19" type="line"/>
      <point x="765" y="70" type="line"/>
      <point x="564" y="721" type="line"/>
      <point x="536" y="732" type="line"/>
      <point x="536" y="732"/>
      <point x="497" y="714"/>
      <point x="497" y="714" type="curve"/>
      <point x="310" y="75" type="line"/>
      <point x="335" y="58" type="line"/>
      <point x="191" y="680" type="line"/>
      <point x="168" y="647" type="line"/>
      <point x="238" y="654"/>
      <point x="287" y="671"/>
      <point x="302" y="687" type="curve"/>
      <point x="297" y="715" type="line"/>
      <point x="0" y="715" type="line"/>
      <point x="-5" y="687" type="line"/>
      <point x="11" y="671"/>
      <point x="46" y="654"/>
      <point x="105" y="646" type="curve"/>
      <point x="67" y="680" type="line"/>
      <point x="265" y="-12" type="line"/>
      <point x="298" y="-23" type="line"/>
      <point x="298" y="-23"/>
      <point x="343" y="3"/>
      <point x="343" y="3" type="curve"/>
      <point x="548" y="627" type="line"/>
      <point x="498" y="588" type="line"/>
      <point x="706" y="-12" type="line"/>
      <point x="739" y="-23" type="line"/>
      <point x="739" y="-23"/>
      <point x="784" y="3"/>
    </contour>
  </outline>
</glyph>
<glyph name="X" format="1">
  <advance width="734"/>
  <unicode hex="0058"/>
  <outline>
    <contour>
      <point x="665" y="672" type="line"/>
      <point x="611" y="643" type="line"/>
      <point x="670" y="653"/>
      <point x="704" y="670"/>
      <point x="720" y="687" type="curve"/>
      <point x="715" y="715" type="line"/>
      <point x="460" y="715" type="line"/>
      <point x="455" y="687" type="line"/>
      <point x="470" y="671"/>
      <point x="518" y="652"/>
      <point x="588" y="645" type="curve"/>
      <point x="568" y="673" type="line"/>
      <point x="342" y="368" type="line"/>
      <point x="400" y="351" type="line"/>
    </contour>
    <contour>
      <point x="67" y="43" type="line"/>
      <point x="118" y="71" type="line"/>
      <point x="59" y="61"/>
      <point x="25" y="44"/>
      <point x="9" y="28" type="curve"/>
      <point x="14" y="0" type="line"/>
      <point x="269" y="0" type="line"/>
      <point x="274" y="28" type="line"/>
      <point x="259" y="43"/>
      <point x="211" y="62"/>
      <point x="141" y="69" type="curve"/>
      <point x="164" y="42" type="line"/>
      <point x="386" y="342" type="line"/>
      <point x="328" y="359" type="line"/>
    </contour>
    <contour>
      <point x="188" y="675" type="line"/>
      <point x="168" y="647" type="line"/>
      <point x="238" y="654"/>
      <point x="289" y="671"/>
      <point x="304" y="687" type="curve"/>
      <point x="299" y="715" type="line"/>
      <point x="10" y="715" type="line"/>
      <point x="5" y="687" type="line"/>
      <point x="21" y="670"/>
      <point x="57" y="655"/>
      <point x="117" y="645" type="curve"/>
      <point x="67" y="675" type="line"/>
      <point x="546" y="40" type="line"/>
      <point x="561" y="67" type="line"/>
      <point x="490.0" y="60.0"/>
      <point x="440.0" y="43.0"/>
      <point x="425" y="28" type="curve"/>
      <point x="430" y="0" type="line"/>
      <point x="724" y="0" type="line"/>
      <point x="729" y="28" type="line"/>
      <point x="713.0" y="44.0"/>
      <point x="676.0" y="59.0"/>
      <point x="617" y="69" type="curve"/>
      <point x="667" y="40" type="line"/>
    </contour>
  </outline>
</glyph>
<glyph name="Y" format="1">
  <advance width="733"/>
  <unicode hex="0059"/>
  <outline>
    <contour>
      <point x="319" y="308" type="line"/>
      <point x="319" y="32" type="line"/>
      <point x="349" y="65" type="line"/>
      <point x="282" y="58"/>
      <point x="229" y="43"/>
      <point x="210" y="28" type="curve"/>
      <point x="215" y="0" type="line"/>
      <point x="531" y="0" type="line"/>
      <point x="536" y="28" type="line"/>
      <point x="517" y="43"/>
      <point x="464" y="58"/>
      <point x="397" y="65" type="curve"/>
      <point x="427" y="32" type="line"/>
      <point x="427" y="308" type="line"/>
    </contour>
    <contour>
      <point x="184" y="677" type="line"/>
      <point x="170" y="647" type="line"/>
      <point x="240" y="654"/>
      <point x="290" y="671"/>
      <point x="305" y="687" type="curve"/>
      <point x="300" y="715" type="line"/>
      <point x="0" y="715" type="line"/>
      <point x="-5" y="687" type="line"/>
      <point x="11" y="671"/>
      <point x="46" y="654"/>
      <point x="105" y="646" type="curve"/>
      <point x="59" y="676" type="line"/>
      <point x="333" y="258" type="line"/>
      <point x="333" y="258"/>
      <point x="411" y="273"/>
      <point x="411" y="273" type="curve"/>
      <point x="674" y="674" type="line"/>
      <point x="628" y="644" type="line"/>
      <point x="687" y="652"/>
      <point x="722" y="671"/>
      <point x="738" y="687" type="curve"/>
      <point x="733" y="715" type="line"/>
      <point x="470" y="715" type="line"/>
      <point x="465" y="687" type="line"/>
      <point x="480" y="671"/>
      <point x="529" y="652"/>
      <point x="599" y="645" type="curve"/>
      <point x="584" y="675" type="line"/>
      <point x="358" y="290" type="line"/>
      <point x="398" y="328" type="line"/>
    </contour>
  </outline>
</glyph>
<glyph name="d" format="1">
  <advance width="637"/>
  <unicode hex="0064"/>
  <outline>
    <contour>
      <point x="250" y="-20" type="curve" smooth="yes"/>
      <point x="383" y="-20"/>
      <point x="440" y="100"/>
      <point x="468" y="187" type="curve"/>
      <point x="449" y="150" type="line"/>
      <point x="429" y="13" type="line"/>
      <point x="445" y="-6" type="line"/>
      <point x="515" y="-6"/>
      <point x="578" y="3"/>
      <point x="622" y="23" type="curve"/>
      <point x="622" y="43" type="line"/>
      <point x="603" y="61"/>
      <point x="564" y="79"/>
      <point x="508" y="93" type="curve"/>
      <point x="530" y="70" type="line"/>
      <point x="530" y="609" type="line"/>
      <point x="542" y="776" type="line"/>
      <point x="526" y="795" type="line"/>
      <point x="456" y="795"/>
      <point x="396" y="786"/>
      <point x="351" y="766" type="curve"/>
      <point x="351" y="746" type="line"/>
      <point x="374" y="724"/>
      <point x="407" y="707"/>
      <point x="465" y="677" type="curve"/>
      <point x="438" y="719" type="line"/>
      <point x="438" y="447" type="line"/>
      <point x="434" y="429" type="line"/>
      <point x="434" y="258" type="line" smooth="yes"/>
      <point x="434" y="145"/>
      <point x="353" y="49"/>
      <point x="276" y="49" type="curve" smooth="yes"/>
      <point x="195" y="49"/>
      <point x="153" y="138"/>
      <point x="153" y="254" type="curve" smooth="yes"/>
      <point x="153" y="387"/>
      <point x="210" y="468"/>
      <point x="302" y="468" type="curve" smooth="yes"/>
      <point x="360" y="468"/>
      <point x="410" y="441"/>
      <point x="446" y="390" type="curve"/>
      <point x="471" y="420" type="line"/>
      <point x="439" y="480"/>
      <point x="384" y="520"/>
      <point x="302" y="520" type="curve" smooth="yes"/>
      <point x="154" y="520"/>
      <point x="45" y="391"/>
      <point x="45" y="219" type="curve" smooth="yes"/>
      <point x="45" y="68"/>
      <point x="132" y="-20"/>
    </contour>
  </outline>
</glyph>
<glyph name="e" format="1">
  <advance width="519"/>
  <unicode hex="0065"/>
  <outline>
    <contour>
      <point x="45.0" y="235.0" type="curve" smooth="yes"/>
      <point x="45.0" y="77.0"/>
      <point x="151.0" y="-20.0"/>
      <point x="283.0" y="-20.0" type="curve" smooth="yes"/>
      <point x="382.0" y="-20.0"/>
      <point x="452.0" y="28.0"/>
      <point x="489.0" y="118.0" type="curve"/>
      <point x="470.0" y="133.0" type="line"/>
      <point x="427.0" y="90.0"/>
      <point x="385.0" y="62.0"/>
      <point x="314.0" y="62.0" type="curve" smooth="yes"/>
      <point x="204.36627907" y="62.0"/>
      <point x="141" y="147"/>
      <point x="141" y="275" type="curve"/>
      <point x="140" y="292" type="line"/>
      <point x="140" y="394"/>
      <point x="185.0" y="474.0"/>
      <point x="262.0" y="474.0" type="curve" smooth="yes"/>
      <point x="338.0" y="474.0"/>
      <point x="369.0" y="408.0"/>
      <point x="369.0" y="355.0" type="curve" smooth="yes"/>
      <point x="369.0" y="335.0"/>
      <point x="366.0" y="318.0"/>
      <point x="356.0" y="304.0" type="curve"/>
      <point x="364.0" y="296.0"/>
      <point x="405.0" y="301.0"/>
      <point x="413.0" y="312.0" type="curve"/>
      <point x="106.0" y="321.0" type="line"/>
      <point x="106.0" y="256.0" type="line"/>
      <point x="441.0" y="265.0" type="line"/>
      <point x="460.0" y="281.0"/>
      <point x="473.0" y="317.0"/>
      <point x="473.0" y="353.0" type="curve" smooth="yes"/>
      <point x="473.0" y="447.0"/>
      <point x="415.0" y="520.0"/>
      <point x="290.0" y="520.0" type="curve" smooth="yes"/>
      <point x="139.0" y="520.0"/>
      <point x="45.0" y="391.0"/>
    </contour>
  </outline>
</glyph>
<glyph name="f" format="1">
  <advance width="394"/>
  <unicode hex="0066"/>
  <outline>
    <contour>
      <point x="395" y="502" type="curve"/>
      <point x="296" y="501"/>
      <point x="201" y="490"/>
      <point x="164" y="488" type="curve"/>
      <point x="164" y="437" type="line"/>
      <point x="338" y="437" type="line" smooth="yes"/>
      <point x="376" y="437"/>
      <point x="399" y="450"/>
      <point x="399" y="477" type="curve" smooth="yes"/>
      <point x="399" y="485"/>
      <point x="398" y="493"/>
    </contour>
    <contour>
      <point x="322" y="766" type="curve" smooth="yes"/>
      <point x="336" y="766"/>
      <point x="347" y="764"/>
      <point x="382" y="747" type="curve"/>
      <point x="350" y="790" type="line"/>
      <point x="376" y="623" type="line"/>
      <point x="394" y="614" type="line"/>
      <point x="430" y="628"/>
      <point x="459" y="656"/>
      <point x="459" y="700" type="curve" smooth="yes"/>
      <point x="459" y="765"/>
      <point x="400" y="805"/>
      <point x="312" y="805" type="curve" smooth="yes"/>
      <point x="191" y="805"/>
      <point x="127" y="731"/>
      <point x="127" y="582" type="curve" smooth="yes"/>
      <point x="127" y="490" type="line"/>
      <point x="156" y="528" type="line"/>
      <point x="87" y="509"/>
      <point x="43" y="487"/>
      <point x="20" y="464" type="curve"/>
      <point x="20" y="436" type="line"/>
      <point x="149" y="436" type="line"/>
      <point x="125" y="479" type="line"/>
      <point x="125" y="32" type="line"/>
      <point x="155" y="66" type="line"/>
      <point x="92" y="58"/>
      <point x="47" y="42"/>
      <point x="30" y="28" type="curve"/>
      <point x="35" y="0" type="line"/>
      <point x="332" y="0" type="line"/>
      <point x="337" y="28" type="line"/>
      <point x="315" y="42"/>
      <point x="262" y="58"/>
      <point x="189" y="65" type="curve"/>
      <point x="219" y="32" type="line"/>
      <point x="219" y="561" type="line" smooth="yes"/>
      <point x="219" y="699.0"/>
      <point x="256.0" y="766.0"/>
    </contour>
  </outline>
</glyph>
<glyph name="g" format="1">
  <advance width="559"/>
  <unicode hex="0067"/>
  <outline>
    <contour>
      <point x="48" y="325" type="curve" smooth="yes"/>
      <point x="48" y="223"/>
      <point x="142" y="162"/>
      <point x="263" y="162" type="curve" smooth="yes"/>
      <point x="403" y="162"/>
      <point x="494" y="253"/>
      <point x="494" y="358" type="curve" smooth="yes"/>
      <point x="494" y="462"/>
      <point x="400" y="520"/>
      <point x="279" y="520" type="curve" smooth="yes"/>
      <point x="137" y="520"/>
      <point x="48" y="430"/>
    </contour>
    <contour>
      <point x="30" y="-120" type="curve" smooth="yes"/>
      <point x="30.0" y="-188.0"/>
      <point x="110.232758621" y="-231.0"/>
      <point x="257" y="-231" type="curve" smooth="yes"/>
      <point x="403.491582492" y="-231.0"/>
      <point x="549" y="-165"/>
      <point x="549" y="-55" type="curve" smooth="yes"/>
      <point x="549" y="32"/>
      <point x="473" y="84"/>
      <point x="355" y="84" type="curve" smooth="yes"/>
      <point x="266" y="84" type="line" smooth="yes"/>
      <point x="227" y="84"/>
      <point x="197" y="89"/>
      <point x="178" y="97" type="curve"/>
      <point x="187" y="177" type="line"/>
      <point x="166" y="182" type="line"/>
      <point x="127" y="168"/>
      <point x="87" y="130"/>
      <point x="87" y="85" type="curve" smooth="yes"/>
      <point x="87" y="37"/>
      <point x="125" y="-5"/>
      <point x="236" y="-5" type="curve" smooth="yes"/>
      <point x="318" y="-5" type="line" smooth="yes"/>
      <point x="403" y="-5"/>
      <point x="457" y="-40"/>
      <point x="457" y="-91" type="curve" smooth="yes"/>
      <point x="457" y="-154"/>
      <point x="375" y="-192"/>
      <point x="275" y="-192" type="curve" smooth="yes"/>
      <point x="180" y="-192"/>
      <point x="132" y="-159"/>
      <point x="132" y="-104" type="curve" smooth="yes"/>
      <point x="132" y="-54"/>
      <point x="168" y="-15"/>
      <point x="229" y="1" type="curve"/>
      <point x="227" y="19"/>
      <point x="224" y="23"/>
      <point x="183" y="10" type="curve" smooth="yes"/>
      <point x="115.979070899" y="-11.3689918872"/>
      <point x="30.0" y="-55.0"/>
    </contour>
    <contour>
      <point x="154" y="362" type="curve" smooth="yes"/>
      <point x="154" y="431"/>
      <point x="182" y="478"/>
      <point x="261" y="478" type="curve" smooth="yes"/>
      <point x="338" y="478"/>
      <point x="388" y="397"/>
      <point x="388" y="321" type="curve" smooth="yes"/>
      <point x="388" y="252"/>
      <point x="358" y="204"/>
      <point x="281" y="204" type="curve" smooth="yes"/>
      <point x="202" y="204"/>
      <point x="154" y="287"/>
    </contour>
    <contour>
      <point x="370" y="429" type="line"/>
      <point x="386" y="474"/>
      <point x="409" y="505"/>
      <point x="445" y="541" type="curve"/>
      <point x="394" y="519" type="line"/>
      <point x="558" y="526" type="line"/>
      <point x="572" y="540" type="line"/>
      <point x="568" y="585"/>
      <point x="540" y="615"/>
      <point x="494" y="615" type="curve" smooth="yes"/>
      <point x="435" y="615"/>
      <point x="380" y="554"/>
      <point x="345" y="458" type="curve"/>
    </contour>
  </outline>
</glyph>
<glyph name="k" format="1">
  <advance width="583"/>
  <unicode hex="006B"/>
  <outline>
    <contour>
      <point x="202" y="609" type="line"/>
      <point x="214" y="776" type="line"/>
      <point x="198" y="795" type="line"/>
      <point x="129" y="795"/>
      <point x="68" y="786"/>
      <point x="25" y="766" type="curve"/>
      <point x="25" y="746" type="line"/>
      <point x="47" y="725"/>
      <point x="78" y="706"/>
      <point x="135" y="678" type="curve"/>
      <point x="108" y="719" type="line"/>
      <point x="108" y="32" type="line"/>
      <point x="138" y="66" type="line"/>
      <point x="76" y="58"/>
      <point x="32" y="42"/>
      <point x="15" y="28" type="curve"/>
      <point x="20" y="0" type="line"/>
      <point x="274" y="0" type="line"/>
      <point x="279" y="28" type="line"/>
      <point x="265" y="42"/>
      <point x="229" y="57"/>
      <point x="173" y="67" type="curve"/>
      <point x="202" y="32" type="line"/>
    </contour>
    <contour>
      <point x="573" y="-3" type="curve"/>
      <point x="294" y="318" type="line"/>
      <point x="285" y="266" type="line"/>
      <point x="526" y="457" type="line"/>
      <point x="473" y="429" type="line"/>
      <point x="524" y="445"/>
      <point x="549" y="456"/>
      <point x="562" y="472" type="curve"/>
      <point x="557" y="500" type="line"/>
      <point x="314" y="500" type="line"/>
      <point x="309" y="472" type="line"/>
      <point x="325" y="458"/>
      <point x="362" y="443"/>
      <point x="431" y="434" type="curve"/>
      <point x="423" y="459" type="line"/>
      <point x="228" y="276" type="line"/>
      <point x="228" y="274" type="line"/>
      <point x="411" y="40" type="line" smooth="yes"/>
      <point x="443" y="-1"/>
      <point x="476" y="-20"/>
      <point x="517" y="-20" type="curve" smooth="yes"/>
      <point x="543" y="-20"/>
      <point x="561" y="-14"/>
    </contour>
  </outline>
</glyph>
<glyph name="l" format="1">
  <advance width="319"/>
  <unicode hex="006C"/>
  <outline>
    <contour>
      <point x="207" y="609" type="line"/>
      <point x="219" y="776" type="line"/>
      <point x="203" y="795" type="line"/>
      <point x="132" y="795"/>
      <point x="70" y="786"/>
      <point x="26" y="766" type="curve"/>
      <point x="26" y="746" type="line"/>
      <point x="49" y="724"/>
      <point x="82" y="707"/>
      <point x="140" y="677" type="curve"/>
      <point x="113" y="719" type="line"/>
      <point x="113" y="32" type="line"/>
      <point x="143" y="66" type="line"/>
      <point x="81" y="58"/>
      <point x="37.0" y="42.0"/>
      <point x="20" y="28" type="curve"/>
      <point x="25" y="0" type="line"/>
      <point x="294" y="0" type="line"/>
      <point x="299" y="28" type="line"/>
      <point x="283.0" y="42.0"/>
      <point x="239" y="58"/>
      <point x="177" y="66" type="curve"/>
      <point x="207" y="32" type="line"/>
    </contour>
  </outline>
</glyph>
<glyph name="n" format="1">
  <advance width="678"/>
  <unicode hex="006E"/>
  <outline>
    <contour>
      <point x="123" y="32" type="line"/>
      <point x="153" y="66" type="line"/>
      <point x="91" y="58"/>
      <point x="47" y="42"/>
      <point x="30" y="28" type="curve"/>
      <point x="35" y="0" type="line"/>
      <point x="306" y="0" type="line"/>
      <point x="311" y="28" type="line"/>
      <point x="295" y="42"/>
      <point x="251" y="58"/>
      <point x="189" y="66" type="curve"/>
      <point x="219" y="32" type="line"/>
      <point x="219" y="245" type="line" smooth="yes"/>
      <point x="219" y="356"/>
      <point x="309" y="451"/>
      <point x="383" y="451" type="curve" smooth="yes"/>
      <point x="452" y="451"/>
      <point x="471" y="407"/>
      <point x="471" y="321" type="curve" smooth="yes"/>
      <point x="471" y="32" type="line"/>
      <point x="501" y="66" type="line"/>
      <point x="439" y="58"/>
      <point x="395" y="42"/>
      <point x="379" y="28" type="curve"/>
      <point x="384" y="0" type="line"/>
      <point x="658" y="0" type="line"/>
      <point x="663" y="28" type="line"/>
      <point x="647" y="42"/>
      <point x="603" y="58"/>
      <point x="541" y="66" type="curve"/>
      <point x="571" y="32" type="line"/>
      <point x="571" y="344" type="line" smooth="yes"/>
      <point x="571" y="457"/>
      <point x="525" y="520"/>
      <point x="413" y="520" type="curve" smooth="yes"/>
      <point x="279" y="520"/>
      <point x="213" y="401"/>
      <point x="189" y="313" type="curve"/>
      <point x="191" y="269" type="line"/>
      <point x="219" y="486" type="line"/>
      <point x="203" y="505" type="line"/>
      <point x="137.024691358" y="505.0"/>
      <point x="78" y="495"/>
      <point x="36" y="476" type="curve"/>
      <point x="36" y="456" type="line"/>
      <point x="59" y="434"/>
      <point x="92" y="417"/>
      <point x="150" y="387" type="curve"/>
      <point x="123" y="429" type="line"/>
    </contour>
  </outline>
</glyph>
<glyph name="o" format="1">
  <advance width="613"/>
  <unicode hex="006F"/>
  <outline>
    <contour>
      <point x="293" y="474" type="curve" smooth="yes"/>
      <point x="402.648809524" y="474.0"/>
      <point x="462.0" y="355.0"/>
      <point x="462" y="216" type="curve" smooth="yes"/>
      <point x="462.0" y="114.0"/>
      <point x="415.673758865" y="26.0"/>
      <point x="320" y="26" type="curve" smooth="yes"/>
      <point x="210.351190476" y="26.0"/>
      <point x="151.0" y="146.0"/>
      <point x="151" y="284" type="curve" smooth="yes"/>
      <point x="151.0" y="387.0"/>
      <point x="197.326241135" y="474.0"/>
    </contour>
    <contour>
      <point x="316" y="520" type="curve" smooth="yes"/>
      <point x="150" y="520"/>
      <point x="45" y="392"/>
      <point x="45" y="236" type="curve" smooth="yes"/>
      <point x="45" y="66"/>
      <point x="172" y="-20"/>
      <point x="297" y="-20" type="curve" smooth="yes"/>
      <point x="463" y="-20"/>
      <point x="568" y="109"/>
      <point x="568" y="264" type="curve" smooth="yes"/>
      <point x="568" y="435"/>
      <point x="441" y="520"/>
    </contour>
  </outline>
</glyph>
<glyph name="p" format="1">
  <advance width="640"/>
  <unicode hex="0070"/>
  <outline>
    <contour>
      <point x="174" y="269" type="line"/>
      <point x="202" y="486" type="line"/>
      <point x="186" y="505" type="line"/>
      <point x="122" y="505"/>
      <point x="62" y="495"/>
      <point x="21" y="476" type="curve"/>
      <point x="21" y="456" type="line"/>
      <point x="44" y="434"/>
      <point x="77" y="417"/>
      <point x="135" y="387" type="curve"/>
      <point x="108" y="429" type="line"/>
      <point x="108" y="-173" type="line"/>
      <point x="138" y="-139" type="line"/>
      <point x="76" y="-147"/>
      <point x="32" y="-163"/>
      <point x="15" y="-177" type="curve"/>
      <point x="20" y="-205" type="line"/>
      <point x="313" y="-205" type="line"/>
      <point x="318" y="-177" type="line"/>
      <point x="296" y="-163"/>
      <point x="243" y="-147"/>
      <point x="170" y="-140" type="curve"/>
      <point x="200" y="-173" type="line"/>
      <point x="200" y="64" type="line"/>
      <point x="206" y="72" type="line"/>
      <point x="206" y="242" type="line" smooth="yes"/>
      <point x="206" y="355"/>
      <point x="287" y="451"/>
      <point x="364" y="451" type="curve" smooth="yes"/>
      <point x="445" y="451"/>
      <point x="487" y="362"/>
      <point x="487" y="246" type="curve" smooth="yes"/>
      <point x="487" y="113"/>
      <point x="430" y="32"/>
      <point x="338" y="32" type="curve" smooth="yes"/>
      <point x="280" y="32"/>
      <point x="230" y="59"/>
      <point x="194" y="110" type="curve"/>
      <point x="169" y="80" type="line"/>
      <point x="201" y="20"/>
      <point x="256" y="-20"/>
      <point x="338" y="-20" type="curve" smooth="yes"/>
      <point x="486" y="-20"/>
      <point x="595" y="109"/>
      <point x="595" y="281" type="curve" smooth="yes"/>
      <point x="595" y="432"/>
      <point x="508" y="520"/>
      <point x="390" y="520" type="curve" smooth="yes"/>
      <point x="257" y="520"/>
      <point x="200" y="400"/>
      <point x="172" y="313" type="curve"/>
    </contour>
  </outline>
</glyph>
<glyph name="r" format="1">
  <advance width="439"/>
  <unicode hex="0072"/>
  <outline>
    <contour>
      <point x="123" y="32" type="line"/>
      <point x="153" y="66" type="line"/>
      <point x="91" y="58"/>
      <point x="47" y="42"/>
      <point x="30" y="28" type="curve"/>
      <point x="35" y="0" type="line"/>
      <point x="328" y="0" type="line"/>
      <point x="333" y="28" type="line"/>
      <point x="310" y="42"/>
      <point x="257" y="58"/>
      <point x="186" y="65" type="curve"/>
      <point x="216" y="32" type="line"/>
      <point x="216" y="193" type="line" smooth="yes"/>
      <point x="216" y="277"/>
      <point x="271" y="378"/>
      <point x="320" y="427" type="curve"/>
      <point x="269" y="404" type="line"/>
      <point x="415" y="412" type="line"/>
      <point x="429" y="426" type="line"/>
      <point x="426" y="484"/>
      <point x="403" y="520"/>
      <point x="354" y="520" type="curve" smooth="yes"/>
      <point x="282" y="520"/>
      <point x="223" y="413"/>
      <point x="180" y="269" type="curve"/>
      <point x="185" y="259" type="line"/>
      <point x="207" y="486" type="line"/>
      <point x="191" y="505" type="line"/>
      <point x="131.463576159" y="505.0"/>
      <point x="76.0747600148" y="494.496043084"/>
      <point x="36" y="476" type="curve"/>
      <point x="36" y="456" type="line"/>
      <point x="59" y="434"/>
      <point x="92" y="417"/>
      <point x="150" y="387" type="curve"/>
      <point x="123" y="429" type="line"/>
    </contour>
  </outline>
</glyph>
<glyph name="u" format="1">
  <advance width="645"/>
  <unicode hex="0075"/>
  <outline>
    <contour>
      <point x="437" y="13" type="line"/>
      <point x="453" y="-6" type="line"/>
      <point x="522.816666667" y="-6.0"/>
      <point x="585.62541564" y="3.27796250671"/>
      <point x="630" y="23" type="curve"/>
      <point x="630" y="43" type="line"/>
      <point x="611" y="61"/>
      <point x="574" y="78"/>
      <point x="519" y="92" type="curve"/>
      <point x="538" y="70" type="line"/>
      <point x="538" y="319" type="line"/>
      <point x="550" y="486" type="line"/>
      <point x="534" y="505" type="line"/>
      <point x="459" y="505"/>
      <point x="394" y="498"/>
      <point x="347" y="476" type="curve"/>
      <point x="347" y="456" type="line"/>
      <point x="370" y="434"/>
      <point x="408" y="419"/>
      <point x="474" y="396" type="curve"/>
      <point x="446" y="434" type="line"/>
      <point x="446" y="255" type="line" smooth="yes"/>
      <point x="446" y="144"/>
      <point x="361" y="49"/>
      <point x="290" y="49" type="curve" smooth="yes"/>
      <point x="223" y="49"/>
      <point x="203" y="93"/>
      <point x="203" y="179" type="curve" smooth="yes"/>
      <point x="203" y="319" type="line"/>
      <point x="215" y="486" type="line"/>
      <point x="199" y="505" type="line"/>
      <point x="125" y="505"/>
      <point x="62" y="498"/>
      <point x="15" y="476" type="curve"/>
      <point x="15" y="456" type="line"/>
      <point x="37" y="435"/>
      <point x="74" y="418"/>
      <point x="135" y="396" type="curve"/>
      <point x="107" y="434" type="line"/>
      <point x="107" y="156" type="line" smooth="yes"/>
      <point x="107" y="43"/>
      <point x="152" y="-20"/>
      <point x="260" y="-20" type="curve" smooth="yes"/>
      <point x="385" y="-20"/>
      <point x="445" y="98"/>
      <point x="466" y="170" type="curve"/>
      <point x="463" y="191" type="line"/>
    </contour>
  </outline>
</glyph>
<glyph name="v" format="1">
  <advance width="622"/>
  <unicode hex="0076"/>
  <outline>
    <contour>
      <point x="177" y="466" type="line"/>
      <point x="153" y="434" type="line"/>
      <point x="217" y="443"/>
      <point x="266" y="457"/>
      <point x="283" y="472" type="curve"/>
      <point x="278" y="500" type="line"/>
      <point x="5" y="500" type="line"/>
      <point x="0" y="472" type="line"/>
      <point x="15" y="458"/>
      <point x="52" y="442"/>
      <point x="110" y="434" type="curve"/>
      <point x="62" y="465" type="line"/>
      <point x="287" y="-9" type="line"/>
      <point x="308" y="-20" type="line"/>
      <point x="308" y="-20"/>
      <point x="349" y="-3"/>
      <point x="349" y="-3" type="curve"/>
      <point x="559" y="465" type="line"/>
      <point x="512" y="434" type="line"/>
      <point x="570" y="442"/>
      <point x="607" y="458"/>
      <point x="622" y="472" type="curve"/>
      <point x="617" y="500" type="line"/>
      <point x="374" y="500" type="line"/>
      <point x="369" y="472" type="line"/>
      <point x="386" y="457"/>
      <point x="435" y="443"/>
      <point x="499" y="434" type="curve"/>
      <point x="474" y="466" type="line"/>
      <point x="310" y="11" type="line"/>
      <point x="351" y="36" type="line"/>
    </contour>
  </outline>
</glyph>
<glyph name="w" format="1">
  <advance width="862"/>
  <unicode hex="0077"/>
  <outline>
    <contour>
      <point x="802" y="466" type="line"/>
      <point x="758" y="431" type="line"/>
      <point x="813" y="444"/>
      <point x="847" y="456"/>
      <point x="862" y="472" type="curve"/>
      <point x="857" y="500" type="line"/>
      <point x="621" y="500" type="line"/>
      <point x="616" y="472" type="line"/>
      <point x="633" y="457"/>
      <point x="682" y="443"/>
      <point x="746" y="434" type="curve"/>
      <point x="719" y="467" type="line"/>
      <point x="599" y="12" type="line"/>
      <point x="641" y="36" type="line"/>
      <point x="474" y="497" type="line"/>
      <point x="453" y="508" type="line"/>
      <point x="453" y="508"/>
      <point x="413" y="491"/>
      <point x="413" y="491" type="curve"/>
      <point x="255" y="12" type="line"/>
      <point x="299" y="36" type="line"/>
      <point x="175" y="467" type="line"/>
      <point x="148" y="434" type="line"/>
      <point x="212" y="443"/>
      <point x="261" y="457"/>
      <point x="278" y="472" type="curve"/>
      <point x="273" y="500" type="line"/>
      <point x="5" y="500" type="line"/>
      <point x="0" y="472" type="line"/>
      <point x="15" y="456"/>
      <point x="49" y="444"/>
      <point x="104" y="431" type="curve"/>
      <point x="60" y="466" type="line"/>
      <point x="237" y="-9" type="line"/>
      <point x="258" y="-20" type="line"/>
      <point x="258" y="-20"/>
      <point x="298" y="-3"/>
      <point x="298" y="-3" type="curve"/>
      <point x="461" y="429" type="line"/>
      <point x="418" y="374" type="line"/>
      <point x="577" y="-9" type="line"/>
      <point x="598" y="-20" type="line"/>
      <point x="598" y="-20"/>
      <point x="638" y="-3"/>
      <point x="638" y="-3" type="curve"/>
    </contour>
  </outline>
</glyph>
<glyph name="copyright" format="1">
  <advance width="793"/>
  <unicode hex="00A9"/>
  <outline>
    <contour>
      <point x="396" y="677" type="curve" smooth="yes"/>
      <point x="564" y="677"/>
      <point x="704" y="534"/>
      <point x="704" y="354" type="curve" smooth="yes"/>
      <point x="704" y="178"/>
      <point x="564" y="39"/>
      <point x="396" y="39" type="curve" smooth="yes"/>
      <point x="229" y="39"/>
      <point x="89" y="178"/>
      <point x="89" y="354" type="curve" smooth="yes"/>
      <point x="89" y="534"/>
      <point x="229" y="677"/>
    </contour>
    <contour>
      <point x="396" y="735" type="curve" smooth="yes"/>
      <point x="189" y="735"/>
      <point x="20" y="564"/>
      <point x="20" y="354" type="curve" smooth="yes"/>
      <point x="20" y="148"/>
      <point x="189" y="-19"/>
      <point x="396" y="-19" type="curve" smooth="yes"/>
      <point x="604" y="-19"/>
      <point x="773" y="148"/>
      <point x="773" y="354" type="curve" smooth="yes"/>
      <point x="773" y="564"/>
      <point x="604" y="735"/>
    </contour>
    <component base="C" xScale="0.59049" yScale="0.59049" xOffset="155" yOffset="148"/>
  </outline>
</glyph>
<glyph name="emdash" format="1">
  <advance width="770"/>
  <unicode hex="2014"/>
  <outline>
    <contour>
      <point x="30" y="340" type="curve"/>
      <point x="30" y="276" type="line"/>
      <point x="30" y="276"/>
      <point x="740" y="276"/>
      <point x="740" y="276" type="curve"/>
      <point x="740" y="340" type="line"/>
      <point x="740" y="340"/>
      <point x="30" y="340"/>
    </contour>
  </outline>
</glyph>
<glyph name="daggerdbl" format="1">
  <advance width="718"/>
  <unicode hex="2021"/>
  <outline>
    <contour>
      <point x="359" y="815" type="curve" smooth="yes"/>
      <point x="337" y="815"/>
      <point x="315" y="806"/>
      <point x="297" y="791" type="curve"/>
      <point x="301" y="723"/>
      <point x="317" y="667"/>
      <point x="345" y="589" type="curve"/>
      <point x="376" y="589" type="line"/>
      <point x="404" y="666"/>
      <point x="417" y="723"/>
      <point x="421" y="791" type="curve"/>
      <point x="403" y="806"/>
      <point x="381" y="815"/>
    </contour>
    <contour>
      <point x="359" y="453" type="curve" smooth="yes"/>
      <point x="334" y="453"/>
      <point x="309" y="445"/>
      <point x="290" y="429" type="curve"/>
      <point x="300" y="256"/>
      <point x="316" y="110"/>
      <point x="343" y="-116" type="curve"/>
      <point x="378" y="-116" type="line"/>
      <point x="404" y="110"/>
      <point x="418" y="256"/>
      <point x="428" y="429" type="curve"/>
      <point x="409" y="445"/>
      <point x="384" y="453"/>
    </contour>
    <contour>
      <point x="299" y="532" type="curve"/>
      <point x="419" y="532" type="line"/>
      <point x="276" y="550"/>
      <point x="208" y="572"/>
      <point x="98" y="577" type="curve"/>
      <point x="84" y="561"/>
      <point x="80" y="542"/>
      <point x="80" y="520" type="curve" smooth="yes"/>
      <point x="80" y="499"/>
      <point x="84" y="480"/>
      <point x="98" y="464" type="curve"/>
      <point x="208" y="468"/>
      <point x="276" y="491"/>
      <point x="419" y="510" type="curve"/>
      <point x="299" y="510" type="line"/>
      <point x="442" y="491"/>
      <point x="510" y="468"/>
      <point x="620" y="464" type="curve"/>
      <point x="634" y="480"/>
      <point x="638" y="499"/>
      <point x="638" y="520" type="curve" smooth="yes"/>
      <point x="638" y="542"/>
      <point x="634" y="561"/>
      <point x="620" y="577" type="curve"/>
      <point x="510" y="572"/>
      <point x="442" y="550"/>
    </contour>
  </outline>
</glyph>
<glyph name="S.alt" format="1">
  <advance width="627"/>
  <outline>
    <contour>
      <point x="316" y="679" type="curve" smooth="yes"/>
      <point x="386" y="679"/>
      <point x="427" y="653"/>
      <point x="455" y="613" type="curve"/>
      <point x="461" y="568"/>
      <point x="486" y="503"/>
      <point x="514" y="479" type="curve"/>
      <point x="542" y="484" type="line"/>
      <point x="542" y="721" type="line"/>
      <point x="514" y="726" type="line"/>
      <point x="491" y="711"/>
      <point x="468" y="682"/>
      <point x="461" y="653" type="curve"/>
      <point x="526" y="653" type="line"/>
      <point x="478" y="707"/>
      <point x="410" y="735"/>
      <point x="318" y="735" type="curve" smooth="yes"/>
      <point x="175" y="735"/>
      <point x="71" y="649"/>
      <point x="71" y="531" type="curve" smooth="yes"/>
      <point x="71" y="398"/>
      <point x="191" y="353"/>
      <point x="288" y="318" type="curve" smooth="yes"/>
      <point x="409" y="274"/>
      <point x="484" y="259"/>
      <point x="484" y="165" type="curve" smooth="yes"/>
      <point x="484" y="84"/>
      <point x="417" y="40"/>
      <point x="331" y="40" type="curve" smooth="yes"/>
      <point x="247" y="40"/>
      <point x="181" y="95"/>
      <point x="150" y="137" type="curve"/>
      <point x="143" y="203"/>
      <point x="116" y="266"/>
      <point x="88" y="290" type="curve"/>
      <point x="60" y="285" type="line"/>
      <point x="60" y="-3" type="line"/>
      <point x="88" y="-8" type="line"/>
      <point x="111" y="7"/>
      <point x="132" y="37"/>
      <point x="139" y="67" type="curve"/>
      <point x="85" y="99" type="line"/>
      <point x="140" y="31"/>
      <point x="225" y="-20"/>
      <point x="336" y="-20" type="curve" smooth="yes"/>
      <point x="478" y="-20"/>
      <point x="586" y="69"/>
      <point x="586" y="192" type="curve" smooth="yes"/>
      <point x="586" y="327"/>
      <point x="469" y="369"/>
      <point x="348" y="412" type="curve" smooth="yes"/>
      <point x="240" y="451"/>
      <point x="166" y="468"/>
      <point x="166" y="563" type="curve" smooth="yes"/>
      <point x="166" y="632"/>
      <point x="231" y="679"/>
    </contour>
  </outline>
</glyph>
<glyph name="f_f" format="1">
  <advance width="760"/>
  <outline>
    <contour>
      <point x="741" y="502" type="curve"/>
      <point x="642" y="501"/>
      <point x="547" y="490"/>
      <point x="510" y="488" type="curve"/>
      <point x="510" y="437" type="line"/>
      <point x="684" y="437" type="line" smooth="yes"/>
      <point x="722" y="437"/>
      <point x="745" y="450"/>
      <point x="745" y="477" type="curve" smooth="yes"/>
      <point x="745" y="485"/>
      <point x="744" y="493"/>
    </contour>
    <contour>
      <point x="471" y="469" type="line"/>
      <point x="471" y="62" type="line"/>
      <point x="438" y="58"/>
      <point x="393" y="42"/>
      <point x="376" y="28" type="curve"/>
      <point x="381" y="0" type="line"/>
      <point x="678" y="0" type="line"/>
      <point x="683" y="28" type="line"/>
      <point x="661" y="42"/>
      <point x="608" y="58"/>
      <point x="565" y="62" type="curve"/>
      <point x="565" y="561" type="line" smooth="yes"/>
      <point x="565" y="699"/>
      <point x="602" y="766"/>
      <point x="668" y="766" type="curve" smooth="yes"/>
      <point x="682" y="766"/>
      <point x="693" y="764"/>
      <point x="701" y="760" type="curve"/>
      <point x="722" y="623" type="line"/>
      <point x="740" y="614" type="line"/>
      <point x="776" y="628"/>
      <point x="805" y="656"/>
      <point x="805" y="700" type="curve" smooth="yes"/>
      <point x="805" y="765"/>
      <point x="748" y="805"/>
      <point x="660" y="805" type="curve" smooth="yes"/>
      <point x="539" y="805"/>
      <point x="473" y="731"/>
      <point x="473" y="582" type="curve" smooth="yes"/>
      <point x="473" y="476" type="line"/>
      <point x="504" y="493" type="line"/>
      <point x="167" y="482" type="line"/>
      <point x="167" y="437" type="line"/>
      <point x="167" y="437"/>
      <point x="485" y="437"/>
      <point x="485" y="437" type="curve"/>
    </contour>
    <contour>
      <point x="309" y="0" type="line"/>
      <point x="314" y="28" type="line"/>
      <point x="297.0" y="42.0"/>
      <point x="252.0" y="58.0"/>
      <point x="219" y="62" type="curve"/>
      <point x="219" y="536" type="line" smooth="yes"/>
      <point x="219" y="674"/>
      <point x="252" y="741"/>
      <point x="311" y="741" type="curve" smooth="yes"/>
      <point x="325" y="741"/>
      <point x="336" y="739"/>
      <point x="344" y="735" type="curve"/>
      <point x="365" y="603" type="line"/>
      <point x="383" y="594" type="line"/>
      <point x="417" y="607"/>
      <point x="442" y="634"/>
      <point x="442" y="676" type="curve" smooth="yes"/>
      <point x="442" y="740"/>
      <point x="385" y="780"/>
      <point x="301" y="780" type="curve" smooth="yes"/>
      <point x="192" y="780"/>
      <point x="127" y="706"/>
      <point x="127" y="557" type="curve" smooth="yes"/>
      <point x="127" y="520" type="line"/>
      <point x="87" y="509"/>
      <point x="43" y="487"/>
      <point x="20" y="464" type="curve"/>
      <point x="20" y="436" type="line"/>
      <point x="149" y="436" type="line"/>
      <point x="125" y="479" type="line"/>
      <point x="125" y="62" type="line"/>
      <point x="92" y="58"/>
      <point x="47" y="42"/>
      <point x="30" y="28" type="curve"/>
      <point x="35" y="0" type="line"/>
    </contour>
  </outline>
</glyph>
<glyph name="f_i" format="1">
  <advance width="651"/>
  <outline>
    <contour>
      <point x="452" y="463" type="line"/>
      <point x="452" y="32" type="line"/>
      <point x="482" y="68" type="line"/>
      <point x="425" y="61"/>
      <point x="386" y="42"/>
      <point x="369" y="28" type="curve"/>
      <point x="374" y="0" type="line"/>
      <point x="630" y="0" type="line"/>
      <point x="635" y="28" type="line"/>
      <point x="619" y="42"/>
      <point x="575" y="58"/>
      <point x="513" y="66" type="curve"/>
      <point x="543" y="32" type="line"/>
      <point x="543" y="319" type="line"/>
      <point x="555" y="486" type="line"/>
      <point x="539" y="505" type="line"/>
      <point x="368" y="502"/>
      <point x="277" y="495"/>
      <point x="164" y="488" type="curve"/>
      <point x="164" y="437" type="line"/>
      <point x="482" y="437" type="line"/>
    </contour>
    <contour>
      <point x="352" y="766" type="curve" smooth="yes"/>
      <point x="374" y="766"/>
      <point x="393" y="766"/>
      <point x="405" y="760" type="curve"/>
      <point x="426" y="623" type="line"/>
      <point x="444" y="614" type="line"/>
      <point x="480" y="628"/>
      <point x="509" y="656"/>
      <point x="509" y="700" type="curve" smooth="yes"/>
      <point x="509" y="765"/>
      <point x="442" y="805"/>
      <point x="342" y="805" type="curve" smooth="yes"/>
      <point x="201" y="805"/>
      <point x="127" y="731"/>
      <point x="127" y="582" type="curve" smooth="yes"/>
      <point x="127" y="490" type="line"/>
      <point x="156" y="528" type="line"/>
      <point x="87" y="509"/>
      <point x="43" y="487"/>
      <point x="20" y="464" type="curve"/>
      <point x="20" y="436" type="line"/>
      <point x="149" y="436" type="line"/>
      <point x="125" y="479" type="line"/>
      <point x="125" y="32" type="line"/>
      <point x="155" y="66" type="line"/>
      <point x="92" y="58"/>
      <point x="47" y="42"/>
      <point x="30" y="28" type="curve"/>
      <point x="35" y="0" type="line"/>
      <point x="302" y="0" type="line"/>
      <point x="307" y="28" type="line"/>
      <point x="285" y="42"/>
      <point x="237" y="62"/>
      <point x="169" y="69" type="curve"/>
      <point x="219" y="32" type="line"/>
      <point x="219" y="561" type="line"/>
      <point x="219" y="699"/>
      <point x="267" y="766"/>
    </contour>
  </outline>
</glyph>
<glyph name="f_l" format="1">
  <advance width="658"/>
  <outline>
    <contour>
      <point x="387" y="502" type="curve"/>
      <point x="292" y="501"/>
      <point x="201.403040021" y="489.913677839"/>
      <point x="166" y="488" type="curve"/>
      <point x="166" y="437" type="line"/>
      <point x="330" y="437" type="line" smooth="yes"/>
      <point x="368" y="437"/>
      <point x="391" y="450"/>
      <point x="391" y="477" type="curve" smooth="yes"/>
      <point x="391" y="485"/>
      <point x="390" y="493"/>
    </contour>
    <contour>
      <point x="335" y="805" type="curve" smooth="yes"/>
      <point x="201.215962441" y="805.0"/>
      <point x="127" y="731.0"/>
      <point x="127" y="582" type="curve" smooth="yes"/>
      <point x="127" y="490" type="line"/>
      <point x="156" y="528" type="line"/>
      <point x="87" y="509"/>
      <point x="43" y="487"/>
      <point x="20" y="464" type="curve"/>
      <point x="20" y="436" type="line"/>
      <point x="149" y="436" type="line"/>
      <point x="125" y="479" type="line"/>
      <point x="125" y="32" type="line"/>
      <point x="155" y="66" type="line"/>
      <point x="92" y="58"/>
      <point x="47" y="42"/>
      <point x="30" y="28" type="curve"/>
      <point x="35" y="0" type="line"/>
      <point x="309" y="0" type="line"/>
      <point x="314" y="28" type="line"/>
      <point x="291.835932962" y="42.1044062968"/>
      <point x="239.017270887" y="60.9983438875"/>
      <point x="166" y="68" type="curve"/>
      <point x="219" y="32" type="line"/>
      <point x="219" y="561" type="line" smooth="yes"/>
      <point x="219" y="696.0"/>
      <point x="254.52" y="761.0"/>
      <point x="339" y="761" type="curve" smooth="yes"/>
      <point x="392.161016949" y="761.0"/>
      <point x="432.563504644" y="733.910557687"/>
      <point x="462" y="677" type="curve"/>
      <point x="453" y="738" type="line"/>
      <point x="453" y="32" type="line"/>
      <point x="490" y="70" type="line"/>
      <point x="427.974938346" y="61.9967662382"/>
      <point x="385.166724315" y="42.129674467"/>
      <point x="367" y="28" type="curve"/>
      <point x="372" y="0" type="line"/>
      <point x="633" y="0" type="line"/>
      <point x="638" y="28" type="line"/>
      <point x="622" y="42"/>
      <point x="578" y="58"/>
      <point x="516" y="66" type="curve"/>
      <point x="546" y="32" type="line"/>
      <point x="546" y="609" type="line"/>
      <point x="558" y="782" type="line"/>
      <point x="542" y="801" type="line"/>
      <point x="488" y="799"/>
      <point x="454" y="780"/>
      <point x="422" y="757" type="curve"/>
      <point x="471" y="763" type="line"/>
      <point x="471.0" y="763.0"/>
      <point x="423.244274809" y="805.0"/>
    </contour>
  </outline>
</glyph>
<glyph name="ff.alt" format="1">
  <advance width="783"/>
  <outline>
    <contour>
      <point x="127" y="577" type="curve" smooth="yes"/>
      <point x="127" y="520" type="line"/>
      <point x="87" y="509"/>
      <point x="43" y="487"/>
      <point x="20" y="464" type="curve"/>
      <point x="20" y="436" type="line"/>
      <point x="149" y="436" type="line"/>
      <point x="125" y="479" type="line"/>
      <point x="125" y="62" type="line"/>
      <point x="92" y="58"/>
      <point x="47" y="42"/>
      <point x="30" y="28" type="curve"/>
      <point x="35" y="0" type="line"/>
      <point x="309" y="0" type="line"/>
      <point x="314" y="28" type="line"/>
      <point x="297" y="42"/>
      <point x="252" y="58"/>
      <point x="219" y="62" type="curve"/>
      <point x="219" y="556" type="line" smooth="yes"/>
      <point x="219" y="694"/>
      <point x="256" y="761"/>
      <point x="322" y="761" type="curve" smooth="yes"/>
      <point x="336" y="761"/>
      <point x="347" y="759"/>
      <point x="355" y="755" type="curve"/>
      <point x="376" y="618" type="line"/>
      <point x="394" y="609" type="line"/>
      <point x="430" y="623"/>
      <point x="459" y="651"/>
      <point x="459" y="695" type="curve" smooth="yes"/>
      <point x="459" y="760"/>
      <point x="402" y="800"/>
      <point x="314" y="800" type="curve" smooth="yes"/>
      <point x="193" y="800"/>
      <point x="127" y="726"/>
    </contour>
    <contour>
      <point x="739" y="502" type="curve"/>
      <point x="640" y="501"/>
      <point x="545" y="490"/>
      <point x="508" y="488" type="curve"/>
      <point x="508" y="437" type="line"/>
      <point x="682" y="437" type="line" smooth="yes"/>
      <point x="720" y="437"/>
      <point x="743" y="450"/>
      <point x="743" y="477" type="curve" smooth="yes"/>
      <point x="743" y="485"/>
      <point x="742" y="493"/>
    </contour>
    <contour>
      <point x="469" y="469" type="line"/>
      <point x="469" y="62" type="line"/>
      <point x="436" y="58"/>
      <point x="391" y="42"/>
      <point x="374" y="28" type="curve"/>
      <point x="379" y="0" type="line"/>
      <point x="676" y="0" type="line"/>
      <point x="681" y="28" type="line"/>
      <point x="659" y="42"/>
      <point x="606" y="58"/>
      <point x="563" y="62" type="curve"/>
      <point x="563" y="556" type="line" smooth="yes"/>
      <point x="563" y="694"/>
      <point x="600" y="761"/>
      <point x="666" y="761" type="curve" smooth="yes"/>
      <point x="680" y="761"/>
      <point x="691" y="759"/>
      <point x="699" y="755" type="curve"/>
      <point x="720" y="618" type="line"/>
      <point x="738" y="609" type="line"/>
      <point x="774" y="623"/>
      <point x="803" y="651"/>
      <point x="803" y="695" type="curve" smooth="yes"/>
      <point x="803" y="760"/>
      <point x="746" y="800"/>
      <point x="658" y="800" type="curve" smooth="yes"/>
      <point x="537" y="800"/>
      <point x="471" y="726"/>
      <point x="471" y="577" type="curve" smooth="yes"/>
      <point x="471" y="476" type="line"/>
      <point x="502" y="493" type="line"/>
      <point x="167" y="482" type="line"/>
      <point x="167" y="437" type="line"/>
      <point x="167" y="437"/>
      <point x="483" y="437"/>
      <point x="483" y="437" type="curve"/>
    </contour>
  </outline>
</glyph>
<glyph name="ffi" format="1">
  <advance width="1016"/>
  <outline>
    <contour>
      <point x="514" y="488" type="curve"/>
      <point x="514" y="437" type="line"/>
      <point x="514" y="437"/>
      <point x="818" y="437"/>
      <point x="818" y="437" type="curve"/>
      <point x="818" y="62" type="line"/>
      <point x="788" y="58"/>
      <point x="746" y="43"/>
      <point x="730" y="28" type="curve"/>
      <point x="735" y="0" type="line"/>
      <point x="996" y="0" type="line"/>
      <point x="1001" y="28" type="line"/>
      <point x="985" y="42"/>
      <point x="941" y="58"/>
      <point x="909" y="62" type="curve"/>
      <point x="909" y="339" type="line"/>
      <point x="921" y="499" type="line"/>
      <point x="905" y="518" type="line"/>
      <point x="742" y="518"/>
      <point x="611" y="495"/>
    </contour>
    <contour>
      <point x="317" y="746" type="curve" smooth="yes"/>
      <point x="330" y="746"/>
      <point x="340" y="744"/>
      <point x="348" y="740" type="curve"/>
      <point x="369" y="608" type="line"/>
      <point x="387" y="599" type="line"/>
      <point x="421" y="613"/>
      <point x="447" y="642"/>
      <point x="447" y="685" type="curve" smooth="yes"/>
      <point x="447" y="747"/>
      <point x="391" y="785"/>
      <point x="307" y="785" type="curve" smooth="yes"/>
      <point x="191" y="785"/>
      <point x="130" y="716"/>
      <point x="130" y="577" type="curve" smooth="yes"/>
      <point x="130" y="520" type="line"/>
      <point x="90" y="509"/>
      <point x="46" y="487"/>
      <point x="23" y="464" type="curve"/>
      <point x="23" y="436" type="line"/>
      <point x="152" y="436" type="line"/>
      <point x="128" y="479" type="line"/>
      <point x="128" y="62" type="line"/>
      <point x="95" y="58"/>
      <point x="50" y="42"/>
      <point x="33" y="28" type="curve"/>
      <point x="38" y="0" type="line"/>
      <point x="335" y="0" type="line"/>
      <point x="340" y="28" type="line"/>
      <point x="318" y="42"/>
      <point x="265" y="58"/>
      <point x="222" y="62" type="curve"/>
      <point x="222" y="556" type="line" smooth="yes"/>
      <point x="222" y="684"/>
      <point x="256" y="746"/>
    </contour>
    <contour>
      <point x="477" y="476" type="line"/>
      <point x="518" y="493" type="line"/>
      <point x="167" y="482" type="line"/>
      <point x="167" y="437" type="line"/>
      <point x="167" y="437"/>
      <point x="499" y="437"/>
      <point x="499" y="437" type="curve"/>
      <point x="473" y="462" type="line"/>
      <point x="473" y="62" type="line"/>
      <point x="441" y="58"/>
      <point x="397" y="42"/>
      <point x="380" y="28" type="curve"/>
      <point x="385" y="0" type="line"/>
      <point x="655" y="0" type="line"/>
      <point x="660" y="28" type="line"/>
      <point x="643" y="42"/>
      <point x="599" y="58"/>
      <point x="567" y="62" type="curve"/>
      <point x="567" y="561" type="line" smooth="yes"/>
      <point x="567" y="686"/>
      <point x="623" y="766"/>
      <point x="715" y="766" type="curve" smooth="yes"/>
      <point x="745" y="766"/>
      <point x="768" y="762"/>
      <point x="784" y="754" type="curve"/>
      <point x="819" y="618" type="line"/>
      <point x="833" y="604" type="line"/>
      <point x="876" y="622"/>
      <point x="898" y="653"/>
      <point x="898" y="688" type="curve" smooth="yes"/>
      <point x="898" y="762"/>
      <point x="820" y="805"/>
      <point x="709" y="805" type="curve" smooth="yes"/>
      <point x="566" y="805"/>
      <point x="477" y="719"/>
      <point x="477" y="582" type="curve" smooth="yes"/>
    </contour>
  </outline>
</glyph>
<glyph name="four.alt" format="1">
  <advance width="606"/>
  <outline>
    <contour>
      <point x="387" y="540" type="line"/>
      <point x="5.0" y="43.0" type="line"/>
      <point x="18.0" y="30.0" type="line"/>
      <point x="530.0" y="30.0" type="line" smooth="yes"/>
      <point x="573.0" y="30.0"/>
      <point x="596.0" y="48.0"/>
      <point x="596.0" y="84.0" type="curve" smooth="yes"/>
      <point x="596.0" y="95.0"/>
      <point x="594.0" y="106.0"/>
      <point x="591.0" y="116.0" type="curve"/>
      <point x="398.0" y="115.0"/>
      <point x="201" y="100"/>
      <point x="74" y="85" type="curve"/>
      <point x="74.5540255698" y="75.5815653131"/>
      <point x="91" y="74"/>
      <point x="86" y="65" type="curve"/>
      <point x="382" y="446" type="line"/>
      <point x="365" y="483" type="line"/>
      <point x="365" y="-164" type="line"/>
      <point x="460" y="-164" type="line"/>
      <point x="460" y="527" type="line"/>
      <point x="448" y="540" type="line"/>
    </contour>
  </outline>
</glyph>
<glyph name="g.alt3" format="1">
  <advance width="559"/>
  <outline>
    <contour>
      <point x="376" y="429" type="line"/>
      <point x="392" y="469"/>
      <point x="415" y="500"/>
      <point x="430" y="515" type="curve"/>
      <point x="558" y="521" type="line"/>
      <point x="572" y="535" type="line"/>
      <point x="568" y="580"/>
      <point x="546" y="607"/>
      <point x="500" y="607" type="curve" smooth="yes"/>
      <point x="444" y="607"/>
      <point x="389" y="549"/>
      <point x="351" y="458" type="curve"/>
    </contour>
    <contour>
      <point x="48" y="325" type="curve" smooth="yes"/>
      <point x="48" y="223"/>
      <point x="142" y="162"/>
      <point x="263" y="162" type="curve" smooth="yes"/>
      <point x="403" y="162"/>
      <point x="494" y="253"/>
      <point x="494" y="358" type="curve" smooth="yes"/>
      <point x="494" y="462"/>
      <point x="400" y="520"/>
      <point x="279" y="520" type="curve" smooth="yes"/>
      <point x="137" y="520"/>
      <point x="48" y="430"/>
    </contour>
    <contour>
      <point x="154" y="362" type="curve" smooth="yes"/>
      <point x="154" y="431"/>
      <point x="182" y="478"/>
      <point x="261" y="478" type="curve" smooth="yes"/>
      <point x="338" y="478"/>
      <point x="388" y="397"/>
      <point x="388" y="321" type="curve" smooth="yes"/>
      <point x="388" y="252"/>
      <point x="358" y="204"/>
      <point x="281" y="204" type="curve" smooth="yes"/>
      <point x="202" y="204"/>
      <point x="154" y="287"/>
    </contour>
    <contour>
      <point x="25" y="-120" type="curve" smooth="yes"/>
      <point x="25" y="-188"/>
      <point x="107" y="-231"/>
      <point x="257" y="-231" type="curve" smooth="yes"/>
      <point x="406" y="-231"/>
      <point x="554" y="-165"/>
      <point x="554" y="-55" type="curve" smooth="yes"/>
      <point x="554" y="33"/>
      <point x="473" y="84"/>
      <point x="350" y="84" type="curve" smooth="yes"/>
      <point x="266" y="84" type="line" smooth="yes"/>
      <point x="227" y="84"/>
      <point x="197" y="89"/>
      <point x="178" y="97" type="curve"/>
      <point x="187" y="177" type="line"/>
      <point x="166" y="182" type="line"/>
      <point x="127" y="168"/>
      <point x="87" y="130"/>
      <point x="87" y="85" type="curve" smooth="yes"/>
      <point x="87" y="37"/>
      <point x="125" y="-5"/>
      <point x="236" y="-5" type="curve" smooth="yes"/>
      <point x="318" y="-5" type="line" smooth="yes"/>
      <point x="405" y="-5"/>
      <point x="457" y="-35"/>
      <point x="457" y="-91" type="curve" smooth="yes"/>
      <point x="457" y="-149"/>
      <point x="375" y="-192"/>
      <point x="275" y="-192" type="curve" smooth="yes"/>
      <point x="180" y="-192"/>
      <point x="132" y="-159"/>
      <point x="132" y="-104" type="curve" smooth="yes"/>
      <point x="132" y="-54"/>
      <point x="168" y="-15"/>
      <point x="229" y="1" type="curve"/>
      <point x="227" y="19"/>
      <point x="224" y="23"/>
      <point x="183" y="10" type="curve" smooth="yes"/>
      <point x="114" y="-12"/>
      <point x="25" y="-55"/>
    </contour>
  </outline>
</glyph>
<glyph name="paragraph.alt" format="1">
  <advance width="646"/>
  <outline>
    <contour>
      <point x="439" y="186" type="line" smooth="yes"/>
      <point x="439" y="7"/>
      <point x="396" y="-68"/>
      <point x="297" y="-68" type="curve" smooth="yes"/>
      <point x="274" y="-68"/>
      <point x="244" y="-64"/>
      <point x="224" y="-57" type="curve"/>
      <point x="202" y="117" type="line"/>
      <point x="184" y="126" type="line"/>
      <point x="139" y="115"/>
      <point x="104" y="78"/>
      <point x="104" y="23" type="curve" smooth="yes"/>
      <point x="104" y="-65"/>
      <point x="192" y="-125"/>
      <point x="305" y="-125" type="curve" smooth="yes"/>
      <point x="441" y="-125"/>
      <point x="518" y="-38"/>
      <point x="518" y="147" type="curve" smooth="yes"/>
      <point x="518" y="683" type="line"/>
      <point x="488" y="649" type="line"/>
      <point x="552" y="657"/>
      <point x="598" y="673"/>
      <point x="616" y="687" type="curve"/>
      <point x="611" y="715" type="line"/>
      <point x="522" y="715" type="line" smooth="yes"/>
      <point x="440.841530055" y="715"/>
      <point x="396.666666667" y="720.0"/>
      <point x="334" y="720" type="curve" smooth="yes"/>
      <point x="161" y="720"/>
      <point x="55" y="640"/>
      <point x="55" y="488" type="curve" smooth="yes"/>
      <point x="55" y="348"/>
      <point x="145" y="255"/>
      <point x="313" y="255" type="curve" smooth="yes"/>
      <point x="349" y="255" type="line"/>
      <point x="349" y="661" type="line"/>
      <point x="320" y="650" type="line"/>
      <point x="467" y="650" type="line"/>
      <point x="439" y="683" type="line"/>
    </contour>
  </outline>
</glyph>
<glyph name="s.alt2" format="1">
  <advance width="507"/>
  <outline>
    <contour>
      <point x="63" y="375" type="curve" smooth="yes"/>
      <point x="63" y="271"/>
      <point x="161" y="239"/>
      <point x="237" y="213" type="curve" smooth="yes"/>
      <point x="319" y="186"/>
      <point x="370" y="167"/>
      <point x="370" y="108" type="curve" smooth="yes"/>
      <point x="370" y="58"/>
      <point x="316" y="25"/>
      <point x="233" y="25" type="curve" smooth="yes"/>
      <point x="201" y="25"/>
      <point x="164" y="29"/>
      <point x="146" y="40" type="curve"/>
      <point x="125" y="188" type="line"/>
      <point x="111" y="202" type="line"/>
      <point x="63" y="182"/>
      <point x="40" y="147"/>
      <point x="40" y="102" type="curve" smooth="yes"/>
      <point x="40" y="25"/>
      <point x="116" y="-20"/>
      <point x="248" y="-20" type="curve" smooth="yes"/>
      <point x="371" y="-20"/>
      <point x="462" y="50"/>
      <point x="462" y="140" type="curve" smooth="yes"/>
      <point x="462" y="237"/>
      <point x="374" y="267"/>
      <point x="282" y="300" type="curve" smooth="yes"/>
      <point x="208" y="326"/>
      <point x="151" y="350"/>
      <point x="151" y="402" type="curve" smooth="yes"/>
      <point x="151" y="447"/>
      <point x="200" y="476"/>
      <point x="273" y="476" type="curve" smooth="yes"/>
      <point x="299" y="476"/>
      <point x="322" y="472"/>
      <point x="340" y="465" type="curve"/>
      <point x="359" y="340" type="line"/>
      <point x="373" y="326" type="line"/>
      <point x="417" y="343"/>
      <point x="439" y="374"/>
      <point x="439" y="415" type="curve" smooth="yes"/>
      <point x="439" y="478"/>
      <point x="368" y="520"/>
      <point x="256" y="520" type="curve" smooth="yes"/>
      <point x="147" y="520"/>
      <point x="63" y="460"/>
    </contour>
  </outline>
</glyph>
